<svg width="21" height="18" viewBox="0 0 21 18" fill="none" xmlns="http://www.w3.org/2000/svg">
<path d="M15.27 0.00129862C14.3361 -0.0187076 13.4118 0.192717 12.5796 0.616717C11.7473 1.04072 11.0328 1.66411 10.5 2.4313C9.96717 1.66411 9.25274 1.04072 8.42045 0.616717C7.58815 0.192717 6.66386 -0.0187076 5.73 0.00129862C4.20939 0.00394777 2.75197 0.609865 1.67767 1.68604C0.603373 2.76221 -2.30762e-06 4.22069 0 5.7413C0 8.5413 1.74 11.4513 5.16 14.3913C6.73083 15.7334 8.42888 16.919 10.23 17.9313C10.3127 17.9768 10.4056 18.0007 10.5 18.0007C10.5944 18.0007 10.6873 17.9768 10.77 17.9313C12.5711 16.919 14.2692 15.7334 15.84 14.3913C19.26 11.4513 21 8.5413 21 5.7413C21 4.22069 20.3966 2.76221 19.3223 1.68604C18.248 0.609865 16.7906 0.00394777 15.27 0.00129862ZM10.5 16.7613C8.93 15.8613 1.15 11.0813 1.15 5.7613C1.14753 5.15642 1.26465 4.55702 1.49461 3.99755C1.72458 3.43808 2.06285 2.92959 2.49 2.5013C2.91343 2.0725 3.41799 1.7323 3.97426 1.50052C4.53053 1.26874 5.12738 1.15003 5.73 1.1513C6.63269 1.11621 7.52467 1.35668 8.2874 1.84075C9.05012 2.32482 9.64746 3.02956 10 3.8613C10.0441 3.96333 10.1171 4.05022 10.21 4.1113C10.3039 4.17668 10.4156 4.21173 10.53 4.21173C10.6444 4.21173 10.7561 4.17668 10.85 4.1113C10.9208 4.04238 10.9725 3.95623 11 3.8613C11.3507 3.03447 11.9434 2.33312 12.7002 1.84944C13.4569 1.36575 14.3423 1.12238 15.24 1.1513C15.8477 1.14602 16.4502 1.26279 17.0119 1.49469C17.5736 1.72658 18.083 2.06888 18.51 2.5013C19.3678 3.36143 19.8497 4.52653 19.85 5.7413C19.85 11.0813 12.07 15.8613 10.5 16.7613Z" fill="#FF2828"/>
<path d="M15.48 0.811266C14.5432 0.77881 13.6185 1.03087 12.8277 1.53426C12.0369 2.03764 11.4171 2.76874 11.05 3.63127C11.0092 3.74348 10.9317 3.83862 10.83 3.90127C10.7325 3.96704 10.6176 4.00219 10.5 4.00219C10.3824 4.00219 10.2675 3.96704 10.17 3.90127C10.0869 3.83086 10.0276 3.73659 10 3.63127C9.62985 2.76052 9.00234 2.02374 8.20161 1.51971C7.40088 1.01568 6.46519 0.768482 5.52 0.811266C4.89144 0.811265 4.26905 0.935234 3.68846 1.17608C3.10787 1.41692 2.58048 1.76991 2.13649 2.21483C1.69249 2.65975 1.34061 3.18788 1.10098 3.76897C0.861354 4.35006 0.738686 4.97271 0.740001 5.60127C0.740001 11.1713 8.87 16.1613 10.5 17.1013C12.13 16.1613 20.26 11.1713 20.26 5.60127C20.2613 4.97271 20.1386 4.35006 19.899 3.76897C19.6594 3.18788 19.3075 2.65975 18.8635 2.21483C18.4195 1.76991 17.8921 1.41692 17.3115 1.17608C16.7309 0.935234 16.1086 0.811265 15.48 0.811266Z" fill="#FF2828"/>
</svg>
